<svg version="1.1" id="WebDevNatalia" xmlns="http://www.w3.org/2000/svg" xmlns:xlink="http://www.w3.org/1999/xlink" x="0px"
	 y="0px" viewBox="0 0 320 47" style="enable-background:new 0 0 320 47;" xml:space="preserve">
	 <g>
	<path class="st0" d="M0.7,10.7h7.9l4.3,19.4l4.4-14.9v-4.6h6.6l5.6,19.5l4.5-19.5h7.9l-7.5,32.2h-7.5l-5.4-18.6l-5.8,18.6H8.2
		L0.7,10.7z"/>
	<path class="st0" d="M41.1,31c0-7.6,4.2-12.4,12.4-12.4c7.5,0,11.9,4.2,11.9,10.7v4.2H48.5c0.8,3.2,3.4,4.2,8.1,4.2
		c2.6,0,5.6-0.5,7.4-1.3v5.3c-2.3,1-5.5,1.5-9.2,1.5C46.5,43.4,41.1,39.3,41.1,31z M58.3,29v-1.1c0-2.3-1.3-3.8-4.6-3.8
		c-3.9,0-5.2,1.5-5.2,4.9H58.3z"/>
	<path class="st0" d="M76.8,40.9l-0.4,2h-7V9.2h8.1v11.1c1.8-1,4.2-1.6,6.6-1.6c7,0,11.2,3.6,11.2,12.2c0,8.6-4.3,12.6-11,12.6
		C81.1,43.4,78.8,42.5,76.8,40.9z M87,30.9c0-4.7-1.6-6.3-5.1-6.3c-1.8,0-3.4,0.5-4.5,1.5v9.7c1.2,1.2,2.8,1.8,4.5,1.8
		C85.6,37.5,87,35.4,87,30.9z"/>
	<path class="st0" d="M97.8,10.7h14c9.8,0,15.1,4.6,15.1,16.3c0,11.1-5.2,15.9-15.1,15.9h-14V10.7z M110.7,36.7c5.2,0,8-1.8,8-9.7
		c0-8-2.4-10.1-8-10.1h-4.8v19.8H110.7z"/>
	<path class="st0" d="M128.5,31c0-7.6,4.2-12.4,12.4-12.4c7.5,0,11.9,4.2,11.9,10.7v4.2h-16.8c0.8,3.2,3.4,4.2,8.1,4.2
		c2.6,0,5.6-0.5,7.4-1.3v5.3c-2.3,1-5.5,1.5-9.2,1.5C133.9,43.4,128.5,39.3,128.5,31z M145.7,29v-1.1c0-2.3-1.3-3.8-4.6-3.8
		c-3.9,0-5.2,1.5-5.2,4.9H145.7z"/>
	<path class="st0" d="M153.3,19.2h8.4l5.2,15.4l5.3-15.4h8.4l-9.4,23.7h-8.6L153.3,19.2z"/>
	<path class="st0" d="M230.1,31.8c-4.6,10-2.9,16.1,2.9,13.5c3.5-1.6,2.5,2-1.1,1.9c-6.8-0.3-8.8-4.9-6.1-13
		c1.8-5.2,11-22.1,11.8-27.2c0.6-3.5-2.6-3.6-6.1-1.9c-3.7,1.8-7.5,4.9-11.1,9.1c-7,8.6-12.2,20.6-15.5,27.4
		c-0.8,1.8-4.5,1.9-4.1,0.3c2.4-3.6,10.3-19.2,12.7-29.8C216.3-1,206.3,0,197.7,5.4c-14.8,9.2-16.5,27.5-6.5,27.5
		c10.5,0,16.8-15.4,7.8-14.3c-1,0.1-0.6-0.7-0.1-0.8c11.9-2.9,5.4,16-7.9,16c-6.4,0-11.8-6.4-7.6-16.6c2.4-5.8,8-10.8,13.7-14
		c8.3-4.5,21-5.3,19.5,7.1c-0.5,3.9-2.5,7.9-4.2,11.7c-2.6,5.7-0.7,2,0.3,0.6c1.8-2.8,4.1-6,6.6-9c3.8-4.6,8-8.7,11.9-10.4
		c4.7-2.2,10.4-2.1,10.3,3.4C241.4,12.4,235.1,21,230.1,31.8z"/>
	<path class="st0" d="M247.6,40c-1.7,0.1-4-1.2-2.5-6.5c-0.8,1.3-2.2,3.3-3.6,4.7c-5.8,5.5-9.6-3.3-2-12.3c3-3.5,8.8-5.4,11.6-2.3
		c0.7,0.8,0.3,1.6-0.5,1.5c-0.6-1.9-2.4-2.3-4.3-1.3c-2.3,1.3-4.8,4.2-6.7,7.2c-0.4,0.7-1.8,3.2-2,5c-0.5,3.5,2.3,3.1,4.6,0.3
		c1.8-2.1,3.2-4.6,4.5-7c1.1-2.1,1.8-3.3,3.4-3.2c0.6,0,1.4,0.4,2.1,0.2c-1,1-4,6.3-4.7,9.4c-0.4,2-0.1,3,0.5,3
		c2.1,0.1,5.4-6.3,6.5-8.4c0.4-0.9,1.2-0.6,0.7,0.4C253.6,33.7,250.6,39.7,247.6,40z"/>
	<path class="st0" d="M266.6,22h-2.9c-1.7,2.9-3.7,5.6-6.7,8.3c-0.5,1.3-1.2,5.1-1.2,5.1c-0.8,3.3,1.5,3.8,3.2,2.6
		c2.3-1.7,4-4.9,5.3-7.6c0.4-0.9,1.1-0.7,0.6,0.3c-2.2,4.6-3,6-4.9,7.8c-2.7,2.6-7.7,1.8-6.9-3.8c0.5-3.4,2.3-8.9,3.9-12.8h-2.6
		c-0.6,0-0.5-1.1,0.1-1.1h3c1.2-2.5,2.4-5,3.7-7.1c3.5-6.1,8.9-5.2,5.2,2.8c-0.7,1.5-1.4,2.9-2.2,4.3h2.4
		C267.2,20.9,267.1,22,266.6,22z M260.2,22c-1.1,2.4-2,4.9-2.7,6.6c1.9-2,3.6-4.3,5-6.6H260.2z M264.3,13.6
		c-1.2,1.7-2.3,4.5-3.5,7.3h2.5c1-1.7,1.8-3.5,2.5-5.1C266.7,13.7,267.4,9.2,264.3,13.6z"/>
	<path class="st0" d="M275.1,40c-1.7,0.1-4-1.2-2.5-6.5c-0.8,1.3-2.2,3.3-3.6,4.7c-5.8,5.5-9.6-3.3-2-12.3c3-3.5,8.8-5.4,11.6-2.3
		c0.7,0.8,0.3,1.6-0.5,1.5c-0.5-1.9-2.4-2.3-4.3-1.3c-2.3,1.3-4.9,4.2-6.7,7.2c-0.4,0.7-1.8,3.2-2.1,5c-0.5,3.5,2.3,3.1,4.6,0.3
		c1.8-2.1,3.2-4.6,4.5-7c1.1-2.1,1.8-3.3,3.4-3.2c0.7,0,1.4,0.4,2.1,0.2c-1.1,1-4,6.3-4.7,9.4c-0.4,2-0.2,3,0.5,3
		c2.1,0.1,5.4-6.3,6.5-8.4c0.5-0.9,1.2-0.6,0.7,0.4C281.1,33.7,278.1,39.7,275.1,40z"/>
	<path class="st0" d="M284.7,30.2c-0.3,0.8-0.8,2-1,3.3c-1.5,6,2.5,6.9,5.2,3.2c1.7-2.4,3.1-5.1,3.7-6.4c0.5-0.8,1.2-0.8,0.8,0.3
		c-1.3,2.7-3.8,9.4-8.9,9.4c-5.6,0-3.2-6.8-2.4-9.9c1.6-5.6,4.7-12.8,7.6-17.7c3.6-6,9-5.3,5.4,2.8
		C292.6,20.4,289.6,25.8,284.7,30.2z M293,12.2c-2.5,3.5-6.4,12.4-7.9,16.4c3.6-3.6,7.2-9.5,9.1-14.2C295.2,12.2,295.7,8.4,293,12.2
		z"/>
	<path class="st0" d="M294.2,38.8c0.8,0.1,1.7-0.5,2.3-1c1.7-1.7,3.3-4.8,4.7-7.6c0.4-0.9,1.1-0.5,0.7,0.5c-1.3,2.8-4.2,9.2-7.9,9.2
		c-3.8,0-3.8-3.9-2.7-6.5l3.2-8.2c0.4-0.9-0.3-1.8-0.5-2.1l2.8,0c1.6,0,1.6,0.5,1.1,1.8l-4,9.4c0,0-0.5,1.1-0.6,1.5
		C292.7,37.3,292.8,38.7,294.2,38.8z M297.8,21c-1.2,0-1.9-0.9-1.8-2.1c0.2-1.1,1.3-2,2.4-2c1.2,0,2,0.9,1.8,2
		C300,20.1,299,21,297.8,21z"/>
	<path class="st0" d="M311.9,40c-1.7,0.1-4-1.2-2.5-6.5c-0.8,1.3-2.2,3.3-3.6,4.7c-5.8,5.5-9.6-3.3-2-12.3c3-3.5,8.8-5.4,11.6-2.3
		c0.7,0.8,0.3,1.6-0.5,1.5c-0.5-1.9-2.4-2.3-4.3-1.3c-2.3,1.3-4.9,4.2-6.7,7.2c-0.4,0.7-1.8,3.2-2.1,5c-0.5,3.5,2.3,3.1,4.6,0.3
		c1.8-2.1,3.2-4.6,4.5-7c1.1-2.1,1.8-3.3,3.4-3.2c0.7,0,1.4,0.4,2.1,0.2c-1,1-4,6.3-4.6,9.4c-0.4,2-0.2,3,0.5,3
		c2.1,0.1,5.4-6.3,6.5-8.4c0.5-0.9,1.2-0.6,0.7,0.4C317.9,33.7,314.9,39.7,311.9,40z"/>
</g>
</svg>
